<svg fill="#ffffffff" height="200px" width="200px" version="1.1" id="Capa_1" xmlns="http://www.w3.org/2000/svg" xmlns:xlink="http://www.w3.org/1999/xlink" viewBox="0 0 32.25 32.25" xml:space="preserve" stroke="#ffffffff" stroke-width="0.00032248"><g id="SVGRepo_bgCarrier" stroke-width="0"></g><g id="SVGRepo_tracerCarrier" stroke-linecap="round" stroke-linejoin="round" stroke="#CCCCCC" stroke-width="0.064496"></g><g id="SVGRepo_iconCarrier"> <g> <polygon points="2.215,23.014 2.215,8.826 14.404,8.826 16.703,6.541 0,6.541 0,25.304 8.008,25.304 8.873,23.014 "></polygon> <path d="M29.32,10.916V6.541h-8.586l-0.791,2.286h7.162v14.188H13.451l-2.357,2.289H29.32v-4.299c0.896,0,2.928,0.166,2.928-1.511 v-6.782C32.248,10.688,30.096,10.916,29.32,10.916z"></path> <polygon points="4.111,10.726 4.111,21.118 4.111,21.122 9.59,21.122 10.951,17.655 6.232,17.659 12.494,10.726 "></polygon> <polygon points="23.031,12.913 15.404,21.122 25.379,21.118 25.393,10.726 19.09,10.726 18.271,12.913 "></polygon> <polygon points="16.791,13.892 20.748,3.918 8.533,16.695 12.695,16.64 7.557,28.331 20.957,13.835 "></polygon> <g> </g> <g> </g> <g> </g> <g> </g> <g> </g> <g> </g> <g> </g> <g> </g> <g> </g> <g> </g> <g> </g> <g> </g> <g> </g> <g> </g> <g> </g> </g> </g></svg>